<?xml version="1.0" encoding="UTF-8"?>
<svg width="174px" height="51px" viewBox="0 0 174 51" version="1.1" xmlns="http://www.w3.org/2000/svg" xmlns:xlink="http://www.w3.org/1999/xlink">
    <!-- Generator: sketchtool 55.2 (78181) - https://sketchapp.com -->
    <title>2365A18B-BD3A-4001-8F3A-0F09E5594567</title>
    <desc>Created with sketchtool.</desc>
    <defs>
        <polygon id="path-1" points="0.0779591141 0.105877193 30.197448 0.105877193 30.197448 14.0175439 0.0779591141 14.0175439"></polygon>
        <polygon id="path-3" points="0 0.0161052632 54.1418637 0.0161052632 54.1418637 35.5604211 0 35.5604211"></polygon>
    </defs>
    <g id="Page-1" stroke="none" stroke-width="1" fill="none" fill-rule="evenodd">
        <g id="01" transform="translate(-100.000000, -24.000000)">
            <g id="Eclipse-Magnetics-logo-Copy" transform="translate(100.000000, 24.000000)">
                <polygon id="Fill-1" fill="#E20026" points="59.1795639 4.48978947 173.920262 4.48978947 173.920262 2.94368421 59.1795639 2.94368421"></polygon>
                <polygon id="Fill-2" fill="#E20026" points="59.1795639 1.56250877 173.920262 1.56250877 173.920262 0.0161052632 59.1795639 0.0161052632"></polygon>
                <polyline id="Fill-3" fill="#E20026" points="64.7561601 14.8791754 73.7090085 14.8791754 73.7090085 18.7924561 64.7561601 18.7924561 64.7561601 22.9028772 74.4927496 22.9028772 74.4927496 27.5203158 59.1594072 27.5203158 59.1594072 6.4057193 74.2965179 6.4057193 74.2965179 11.0222632 64.7561601 11.0222632 64.7561601 14.8791754"></polyline>
                <path d="M94.3918876,19.5243509 L94.3918876,20.1435088 C94.3918876,22.4519298 94.363431,24.5348772 92.4612879,26.1388421 C90.5579591,27.7162632 88.2357853,27.6888556 85.800971,27.6888556 C80.0930596,27.6888556 75.9241738,27.4069825 75.9241738,19.6934561 L75.9241738,14.2316842 C75.9241738,7.24915789 79.6448688,6.2357193 85.800971,6.2357193 C91.5657956,6.2357193 94.2516797,6.8274386 94.363431,13.1612807 L94.363431,13.9781754 L88.5994957,13.9781754 L88.5994957,13.1612807 C88.4032641,11.2754737 87.0883339,11.1347018 85.1861908,11.1347018 C81.9963884,11.1347018 81.688109,12.1201053 81.688109,15.1317895 L81.688109,18.425614 C81.688109,21.5789649 81.8280204,22.7895439 85.1861908,22.7895439 C87.5083646,22.7895439 88.6279523,22.6213333 88.6279523,20.1435088 L88.6279523,19.5243509 L94.3918876,19.5243509" id="Fill-4" fill="#E20026"></path>
                <polyline id="Fill-5" fill="#E20026" points="101.832685 22.6213333 110.589894 22.6213333 110.589894 27.5203158 96.2359319 27.5203158 96.2359319 6.4057193 101.832685 6.4057193 101.832685 22.6213333"></polyline>
                <polygon id="Fill-6" fill="#E20026" points="111.90275 27.5203158 117.498613 27.5203158 117.498613 6.4057193 111.90275 6.4057193"></polygon>
                <path d="M129.35492,17.2159298 C131.565342,17.1309298 131.873622,16.8774211 131.873622,14.1475789 C131.873622,11.9790351 131.538072,11.3041053 129.35492,11.3041053 L125.522474,11.3041053 L125.522474,17.2159298 L129.35492,17.2159298 Z M119.925721,27.5203158 L119.925721,6.4057193 L130.474508,6.4057193 C135.679094,6.4057193 137.637853,8.62884211 137.637853,14.1475789 C137.637853,20.0868421 136.322923,22.1143158 130.474508,22.1143158 L125.522474,22.1143158 L125.522474,27.5203158 L119.925721,27.5203158 L119.925721,27.5203158 Z" id="Fill-7" fill="#E20026"></path>
                <path d="M149.008324,14.6817368 C155.219857,15.1317895 156.758414,15.9206491 156.758414,20.7629649 C156.758414,24.2533333 156.899387,27.6888246 147.66553,27.6888246 C142.321329,27.6888246 138.767816,27.575193 138.767816,20.6505263 L144.139288,20.6505263 C144.139288,22.8462105 144.923029,23.071386 147.66553,23.071386 C150.295983,23.071386 151.162722,22.9028772 151.162722,21.1289123 C151.162722,19.2982807 150.855036,19.3275088 148.224583,19.1584035 L146.99354,19.0731053 C141.817707,18.7071579 138.795383,18.7357895 138.795383,12.6837895 C138.795383,6.63089474 142.180528,6.2357193 147.66553,6.2357193 C152.254446,6.2357193 156.171966,6.3207193 156.171966,12.1475439 L156.171966,13.0205088 L150.799012,13.0205088 C150.799012,10.8528596 149.903816,10.8528596 147.66553,10.8528596 C144.643799,10.8528596 144.392136,11.4723158 144.392136,12.6545614 C144.392136,14.3441228 145.203148,14.400193 146.68615,14.5132281 L149.008324,14.6817368" id="Fill-8" fill="#E20026"></path>
                <polyline id="Fill-9" fill="#E20026" points="164.218947 14.8791754 173.172685 14.8791754 173.172685 18.7924561 164.218947 18.7924561 164.218947 22.9028772 173.956722 22.9028772 173.956722 27.5203158 158.623083 27.5203158 158.623083 6.4057193 173.935973 6.4057193 173.935973 11.0222632 164.218947 11.0222632 164.218947 14.8791754"></polyline>
                <polyline id="Fill-10" fill="#E20026" points="62.8048109 50.8902456 59.1748211 50.8902456 59.1748211 37.1977895 64.9271959 37.1977895 67.5223748 45.7962105 67.64954 45.7962105 70.1172572 37.1977895 76.014879 37.1977895 76.014879 50.8902456 72.386075 50.8902456 72.7488961 40.3925965 72.6214344 40.3925965 69.173448 50.8902456 66.0346303 50.8902456 62.550184 40.3925965 62.4419898 40.3925965 62.8048109 50.8902456"></polyline>
                <path d="M83.7912266,39.9371754 L83.7547666,39.9371754 L82.1036934,45.8710702 L85.4790562,45.8710702 L83.7912266,39.9371754 Z M81.3235094,48.5352982 L80.6515196,50.8902456 L76.8771721,50.8902456 L80.959799,37.1977895 L86.4765179,37.1977895 L90.6145758,50.8902456 L86.9119625,50.8902456 L86.204402,48.5352982 L81.3235094,48.5352982 L81.3235094,48.5352982 Z" id="Fill-11" fill="#E20026"></path>
                <path d="M99.7337172,41.4522632 C99.6610937,40.0633333 98.481925,40.0815263 97.3934617,40.0815263 C94.780201,40.0815263 94.7072811,40.8867895 94.6708211,43.0952982 L94.6708211,45.3222982 C94.6708211,47.7503158 95.5058433,48.0065088 97.3934617,48.0065088 C99.2437308,48.0065088 99.7337172,47.5856842 99.7337172,45.6882456 L97.22954,45.6882456 L97.22954,43.1501754 L103.417359,43.1501754 L103.417359,45.541807 C103.417359,50.1601404 102.256273,51 97.3934617,51 C93.1107496,51 90.9329336,50.2698947 90.9329336,45.8325965 L90.9329336,42.2921228 C90.9329336,37.7632632 93.4006508,37.0883333 97.3934617,37.0883333 C100.913182,37.0883333 103.417359,37.1065263 103.417359,41.4522632 L99.7337172,41.4522632" id="Fill-12" fill="#E20026"></path>
                <polyline id="Fill-13" fill="#E20026" points="108.719468 50.8902456 105.090664 50.8902456 105.090664 37.1977895 111.223646 37.1977895 115.124566 47.7136316 115.270109 47.7136316 115.052831 37.1977895 118.681635 37.1977895 118.681635 50.8902456 112.493816 50.8902456 108.646845 40.3744035 108.501302 40.3744035 108.719468 50.8902456"></polyline>
                <polyline id="Fill-14" fill="#E20026" points="124.028208 42.6926667 129.835124 42.6926667 129.835124 45.2307368 124.028208 45.2307368 124.028208 47.8967544 130.343489 47.8967544 130.343489 50.8902456 120.399404 50.8902456 120.399404 37.1977895 130.216027 37.1977895 130.216027 40.1915789 124.028208 40.1915789 124.028208 42.6926667"></polyline>
                <polyline id="Fill-15" fill="#E20026" points="138.823543 50.8902456 135.194443 50.8902456 135.194443 40.3744035 131.710293 40.3744035 131.710293 37.1977895 142.488807 37.1977895 142.488807 40.3744035 138.823543 40.3744035 138.823543 50.8902456"></polyline>
                <g id="Group-20" transform="translate(143.764906, 36.982456)">
                    <mask id="mask-2" fill="white">
                        <use xlink:href="#path-1"></use>
                    </mask>
                    <g id="Clip-17"></g>
                    <polygon id="Fill-16" fill="#E20026" mask="url(#mask-2)" points="0.0779591141 13.9077895 3.7067632 13.9077895 3.7067632 0.215333333 0.0779591141 0.215333333"></polygon>
                    <path d="M17.3442726,8.72398246 L17.3442726,9.12482456 C17.3442726,10.6232105 17.3261908,11.9736667 16.0924804,13.0130526 C14.8581772,14.0357368 13.3526474,14.0175653 11.7739012,14.0175653 C8.07247359,14.0175653 5.36821124,13.8344211 5.36821124,8.83373684 L5.36821124,5.29147368 C5.36821124,0.762614035 7.78138671,0.105877193 11.7739012,0.105877193 C15.5123816,0.105877193 17.2535673,0.490017544 17.3261908,4.59775439 L17.3261908,5.12654386 L13.5880068,5.12654386 L13.5880068,4.59775439 C13.4617308,3.37375439 12.6089233,3.28219298 11.3752129,3.28219298 C9.30529472,3.28219298 9.10609881,3.92073684 9.10609881,5.87514035 L9.10609881,8.0102807 C9.10609881,10.0559474 9.19621124,10.8409298 11.3752129,10.8409298 C12.8807428,10.8409298 13.606385,10.7311754 13.606385,9.12482456 L13.606385,8.72398246 L17.3442726,8.72398246" id="Fill-18" fill="#E20026" mask="url(#mask-2)"></path>
                    <path d="M25.1707155,5.58405263 C29.1988007,5.87514035 30.1975265,6.3854386 30.1975265,9.52715789 C30.1975265,11.7905439 30.2881533,14.0175439 24.2995298,14.0175439 C20.8334617,14.0175439 18.5290733,13.9441754 18.5290733,9.45408772 L22.0135196,9.45408772 C22.0135196,10.877614 22.5218842,11.0240526 24.2995298,11.0240526 C26.0054412,11.0240526 26.5671618,10.9142982 26.5671618,9.76336842 C26.5671618,8.57754386 26.3682624,8.59603509 24.6626474,8.48598246 L23.8640852,8.43110526 C20.5068041,8.19340351 18.5474514,8.21159649 18.5474514,4.28668421 C18.5474514,0.362070175 20.7433492,0.105877193 24.2995298,0.105877193 C27.2756116,0.105877193 29.8162487,0.16045614 29.8162487,3.93922807 L29.8162487,4.50649123 L26.3320988,4.50649123 C26.3320988,3.09907018 25.7517036,3.09907018 24.2995298,3.09907018 C22.3401772,3.09907018 22.176552,3.502 22.176552,4.26849123 C22.176552,5.36454386 22.7027019,5.40122807 23.6648893,5.47429825 L25.1707155,5.58405263" id="Fill-19" fill="#E20026" mask="url(#mask-2)"></path>
                </g>
                <path d="M168.908944,32.3572632 C169.045298,32.9683684 169.369584,33.508193 169.818072,33.9117193 L169.588048,33.9099298 L59.1795639,33.9099298 L59.1795639,32.3638246 L168.817942,32.3638246 L168.908944,32.3572632" id="Fill-21" fill="#E20026"></path>
                <path d="M168.926729,30.9814561 C169.082647,30.3673684 169.428869,29.8293333 169.898106,29.4362456 L59.1795639,29.4362456 L59.1795639,30.9823509 L168.846991,30.9823509 L168.926729,30.9814561" id="Fill-22" fill="#E20026"></path>
                <path d="M171.408675,31.566614 L171.646998,31.566614 C171.925043,31.566614 172.149731,31.4732632 172.149731,31.2477895 C172.149731,31.0473684 172.002705,30.9134561 171.686422,30.9134561 C171.554218,30.9134561 171.461141,30.9268772 171.408675,30.9408947 L171.408675,31.566614 Z M171.395336,32.7915088 L170.892307,32.7915088 L170.892307,30.6083509 C171.091503,30.5812105 171.368361,30.5406491 171.725847,30.5406491 C172.136688,30.5406491 172.321656,30.6083509 172.46631,30.7142281 C172.600589,30.8075789 172.692184,30.9683333 172.692184,31.1806842 C172.692184,31.4470175 172.493284,31.6197018 172.241918,31.6999298 L172.241918,31.7261754 C172.453564,31.792386 172.55909,31.9653684 172.625785,32.2579474 C172.692184,32.5922807 172.744058,32.7109825 172.785557,32.7915088 L172.255257,32.7915088 C172.188562,32.7109825 172.149731,32.5242807 172.083629,32.2579474 C172.043908,32.0321754 171.910814,31.9265965 171.633956,31.9265965 L171.395336,31.9265965 L171.395336,32.7915088 Z M169.910555,31.6593684 C169.910555,32.6799649 170.702596,33.4929825 171.754303,33.4929825 C172.777554,33.505807 173.554477,32.6799649 173.554477,31.673386 C173.554477,30.6524912 172.777554,29.8269474 171.725254,29.8269474 C170.702596,29.8269474 169.910555,30.6524912 169.910555,31.6593684 Z M173.959687,31.6590702 C173.959687,32.913193 172.981492,33.9063509 171.738889,33.9063509 C170.49599,33.9063509 169.506235,32.913193 169.506235,31.6590702 C169.506235,30.4061404 170.49599,29.4255088 171.752821,29.4255088 C172.981492,29.4255088 173.959687,30.4058421 173.959687,31.6590702 L173.959687,31.6590702 Z" id="Fill-23" fill="#E20026"></path>
                <g id="Group-27">
                    <mask id="mask-4" fill="white">
                        <use xlink:href="#path-3"></use>
                    </mask>
                    <g id="Clip-25"></g>
                    <path d="M36.4798262,0.0161052632 L36.4733049,0.0161052632 L36.478937,0.363859649 L36.4780477,0.484649123 C36.4780477,0.484649123 36.478937,0.484649123 36.4807155,0.484649123 C37.1346235,0.48822807 37.7802317,0.527596491 38.4157615,0.601561404 L38.469414,0.136894737 C37.815506,0.0599473684 37.151816,0.0196842105 36.4798262,0.0161052632 M37.9148075,35.018807 C37.4429029,35.0626491 36.964477,35.0874035 36.4816048,35.0918772 C36.3144225,35.0874035 36.1481295,35.0799474 35.9806508,35.071 L35.9551584,35.5383509 C36.1270835,35.5475965 36.2990085,35.5547544 36.4718228,35.5604211 L36.4807155,35.5604211 C36.9781124,35.5559474 37.4701738,35.5302982 37.9574923,35.4852632 L37.9148075,35.018807 M33.0872709,34.6865614 L32.9918228,35.1458596 C33.6365417,35.2812632 34.2940068,35.3865439 34.9612538,35.4578246 L35.01046,34.9922632 C34.3586269,34.9227719 33.7165758,34.8201754 33.0872709,34.6865614 M40.7826951,34.5073158 C40.1616899,34.6737368 39.5258637,34.8055614 38.8796627,34.9024912 L38.9487291,35.3653684 C39.6124191,35.2666491 40.2636593,35.1303509 40.9018569,34.9591579 L40.7826951,34.5073158 M30.2857819,33.8660877 L30.1212675,34.3042105 C30.7387155,34.5374386 31.3721704,34.7426316 32.021632,34.9144211 L32.1399046,34.4616842 C31.5070426,34.2931754 30.887816,34.0936491 30.2857819,33.8660877 M43.5243066,33.5174386 C42.9367973,33.7873509 42.3329847,34.0250526 41.7146474,34.2290526 L41.8593015,34.6737368 C42.4948313,34.4643684 43.1149472,34.2201053 43.7178705,33.9427368 L43.5243066,33.5174386 M28.096109,32.8705439 L27.8779421,33.2842105 C28.3062726,33.5135614 28.74646,33.7277018 29.1973186,33.9263333 L29.3837683,33.4971579 C28.9447666,33.3032982 28.5143612,33.0948246 28.096109,32.8705439 M46.0610903,32.080193 C45.5263441,32.4452456 44.9699591,32.7816667 44.3951959,33.0864737 L44.6115843,33.5007368 C45.2026508,33.1881754 45.7726712,32.8422105 46.3222385,32.4670175 L46.0610903,32.080193 M34.5922078,31.9722281 C33.9620136,32.0781053 33.3190733,32.1431228 32.6654617,32.161614 L32.6782078,32.6301579 C33.354644,32.6107719 34.0183339,32.5439649 34.6692777,32.4342105 L34.5922078,31.9722281 M29.7664497,31.9638772 L29.6884906,32.4249649 C30.3412129,32.5374035 31.0040136,32.607193 31.6789676,32.6289649 L31.6940852,32.161614 C31.0413629,32.1395439 30.3993118,32.0718421 29.7664497,31.9638772 M27.8296252,31.5045789 L27.6968279,31.9531404 C28.0314889,32.0536491 28.3691141,32.1452105 28.7082215,32.2257368 L28.81523,31.7691228 C28.4844225,31.6912807 28.1571721,31.6024035 27.8296252,31.5045789 M37.3883612,31.1917193 C36.7919591,31.4279298 36.1745111,31.6235789 35.5413526,31.7771754 L35.6498433,32.2328947 C36.3043441,32.0745263 36.9416525,31.8717193 37.5591005,31.6271579 L37.3883612,31.1917193 M48.3251652,30.2376316 C47.8580034,30.6876842 47.3641635,31.1120877 46.8483884,31.5084561 L47.1311755,31.8806667 C47.660586,31.4735614 48.1671721,31.0381228 48.6470801,30.5761404 L48.3251652,30.2376316 M39.9642726,29.8505088 C39.4259693,30.2054211 38.8621738,30.5248421 38.2755537,30.8045965 L38.4756388,31.2275088 C39.08123,30.9394035 39.6634037,30.6089474 40.2197888,30.243 L39.9642726,29.8505088 M29.1045383,29.2292632 C28.9136422,29.2402982 28.7227462,29.2456667 28.5300716,29.2456667 L28.4100204,29.2456667 L28.3845281,29.2513333 C28.2680341,29.2769825 28.1716968,29.2880175 28.0833629,29.288614 C27.9953254,29.2880175 27.9135128,29.2769825 27.8225111,29.2531228 L27.7042385,29.7070526 C27.8287359,29.7389649 27.9535298,29.7571579 28.0824736,29.7571579 L28.0833629,29.7571579 C28.2043032,29.7571579 28.3273186,29.7416491 28.4580409,29.7142105 L28.5300716,29.7142105 C28.7319353,29.7142105 28.9320204,29.7088421 29.1309199,29.6969123 L29.1045383,29.2292632 M31.9214412,28.6447018 C31.3232606,28.8645088 30.700477,29.0264561 30.0602044,29.1266667 L30.1322351,29.5898421 C30.8024463,29.4845614 31.4542794,29.3142632 32.0806201,29.0849123 L31.9214412,28.6447018 M50.2557649,28.0419474 L50.2557649,28.0419474 C49.8674514,28.5650702 49.4509779,29.0655263 49.0090119,29.5421228 L49.3490085,29.8615439 C49.8037206,29.3730175 50.2311618,28.8588421 50.6292572,28.3217018 L50.2557649,28.0419474 M42.2164906,28.0097368 C41.76,28.4681404 41.2717922,28.8964211 40.7563135,29.288614 L41.037322,29.6629123 C41.5691039,29.257 42.0739114,28.815 42.545816,28.3410877 L42.2164906,28.0097368 M34.4638569,27.2823158 C33.9430426,27.6619825 33.3893254,27.9942281 32.8092266,28.2712982 L33.0090153,28.6942105 C33.6154957,28.4052105 34.193816,28.0583509 34.7377513,27.6610877 L34.4638569,27.2823158 M27.950862,26.8892281 C27.8577853,26.9330702 27.7644123,26.9751228 27.6707428,27.0162807 L27.8563032,27.4463509 C27.9553083,27.4031053 28.0525349,27.3583684 28.1497615,27.3115439 L27.950862,26.8892281 M44.0495673,25.7445614 L44.0495673,25.7445614 C43.695046,26.2888596 43.3040647,26.807807 42.8786985,27.2972281 L43.2293663,27.6053158 C43.6677751,27.100386 44.0723918,26.5644386 44.43877,26.0016491 L44.0495673,25.7445614 M51.7950869,25.5524912 C51.4995537,26.1352632 51.1723032,26.6986491 50.8148177,27.2414561 L51.2031312,27.5000351 C51.5695094,26.9429123 51.9059489,26.3640175 52.2097819,25.7663333 L51.7950869,25.5524912 M36.5563032,25.2795965 C36.1481295,25.786614 35.7005315,26.2551579 35.218845,26.6777719 L35.5241601,27.0308947 C36.0277819,26.5900877 36.4934617,26.1021579 36.9182351,25.5751579 L36.5563032,25.2795965 M30.3323203,25.2688596 C29.85923,25.7078772 29.3446405,26.0967895 28.7971482,26.4305263 L29.0375468,26.8313684 C29.6137922,26.4809298 30.1520954,26.0729298 30.6468245,25.6136316 L30.3323203,25.2688596 M45.3790221,23.1498246 C45.144552,23.7573509 44.8679898,24.3466842 44.5534855,24.9121579 L44.9589915,25.140614 C45.2844634,24.5569474 45.5699182,23.9476316 45.8138739,23.3183333 L45.3790221,23.1498246 M32.1407939,23.0165088 C31.8105792,23.5772105 31.4305656,24.0997368 31.0069779,24.5790175 L31.3540886,24.8900877 C31.797833,24.3887368 32.1962249,23.8414561 32.5418535,23.2551053 L32.1407939,23.0165088 M52.8971857,22.8381579 C52.7033254,23.4647719 52.4753765,24.0749825 52.213339,24.6687895 L52.6395945,24.8581754 C52.9081533,24.2479649 53.1426235,23.6201579 53.3427087,22.9780351 L52.8971857,22.8381579 M38.0766542,22.8059474 C37.8063169,23.4024386 37.4891448,23.9679123 37.1310664,24.5002807 L37.5164157,24.7618421 C37.8893152,24.2094912 38.2195298,23.6201579 38.4993526,23.0015965 L38.0766542,22.8059474 M28.4408484,21.9368596 C28.3717819,22.1709825 28.2953049,22.4116667 28.2134923,22.6612982 L28.209046,22.6732281 L28.2063782,22.6860526 C28.1207121,23.0931579 28.0098501,23.4665614 27.8826848,23.8250526 L28.3207973,23.9825263 C28.451816,23.613 28.5689029,23.2214035 28.6590153,22.795807 C28.7411244,22.5479649 28.8164157,22.306386 28.8863714,22.0722632 L28.4408484,21.9368596 M33.2399284,20.3376667 L33.2399284,20.3376667 C33.078971,20.9726316 32.8608041,21.5819474 32.5907632,22.1599474 L33.0128688,22.3594737 C33.2947666,21.7546316 33.5227155,21.1169825 33.6910835,20.4527895 L33.2399284,20.3376667 M46.1357888,20.3302105 C46.0338194,20.978 45.8873867,21.6111754 45.6973799,22.2276491 L46.1429029,22.3666316 C46.3385417,21.7280877 46.4903101,21.0731404 46.5958365,20.4032807 L46.1357888,20.3302105 M38.9466542,20.0319649 C38.8277888,20.6788596 38.6576422,21.3054737 38.4412538,21.9073333 L38.8796627,22.0657018 C39.1040545,21.4408772 39.2804259,20.7895088 39.4052198,20.1178596 L38.9466542,20.0319649 M53.5264906,19.9770877 C53.439046,20.6284561 53.3172164,21.2699825 53.1607053,21.8965965 L53.6118603,22.0108246 C53.773707,21.3660175 53.8993901,20.7089825 53.9874276,20.0394211 L53.5264906,19.9770877 M29.0245043,19.0778772 C28.9729267,19.7062807 28.8647325,20.3284211 28.7008109,20.992614 L29.1528552,21.1059474 C29.3212232,20.4217719 29.4335673,19.7739825 29.4884055,19.1169474 L29.0245043,19.0778772 M34.021891,17.4402105 L33.5565077,17.4575088 C33.560954,17.5672632 33.5636218,17.6770175 33.5636218,17.7876667 C33.5600647,18.3340526 33.5164906,18.8682105 33.434678,19.3880526 L33.8947257,19.4611228 C33.9800954,18.9177193 34.0257445,18.3597018 34.0293015,17.7885614 L34.0293015,17.7870702 C34.0293015,17.6707544 34.0266337,17.5544386 34.021891,17.4402105 M46.7621295,17.3954737 L46.2976354,17.4088947 C46.3011925,17.5508596 46.302971,17.6928246 46.302971,17.8344912 L46.3020818,18.0101579 L46.3020818,18.0155263 L46.302971,18.1858246 C46.302971,18.5827895 46.2866678,18.974386 46.2528756,19.3624035 L46.7176661,19.4026667 C46.7511618,19.0018246 46.7686508,18.595614 46.7686508,18.1858246 L46.7674651,18.0128421 L46.7686508,17.8344912 C46.7686508,17.6880526 46.7668722,17.541614 46.7621295,17.3954737 M39.5978944,17.1025965 L39.1339932,17.1273509 C39.1449608,17.3441754 39.1505928,17.5618947 39.1505928,17.7805088 L39.1505928,17.7951228 C39.1505928,18.2260877 39.1286576,18.6522807 39.0850835,19.0704211 L39.5486882,19.1190351 C39.5931516,18.6832982 39.6159761,18.2424912 39.6159761,17.7951228 L39.6159761,17.7805088 C39.6159761,17.5526491 39.6106405,17.3265789 39.5978944,17.1025965 M54.1220034,17.0313158 L53.6572129,17.0530877 C53.6681806,17.2964561 53.6755911,17.541614 53.6764804,17.7876667 C53.6738126,18.1965614 53.6572129,18.6030702 53.626385,19.0045088 L54.090879,19.0402982 C54.1228927,18.6266316 54.1391959,18.209386 54.1418637,17.7885614 L54.1418637,17.7870702 C54.1409744,17.5323684 54.1338603,17.2818421 54.1220034,17.0313158 M29.3564974,16.0981053 L28.8964497,16.1675965 C29.0028654,16.8711579 29.0553322,17.5052281 29.0609642,18.1088772 L29.526644,18.1052982 C29.5210119,17.476 29.4646917,16.8189649 29.3564974,16.0981053 M33.4874412,14.4586491 L33.0454753,14.6059825 C33.2455605,15.2105263 33.3911039,15.8419123 33.4764736,16.492386 L33.9374106,16.4309474 C33.8484838,15.7503509 33.6964191,15.0906316 33.4874412,14.4586491 M46.3684804,14.4055614 L45.9155468,14.5144211 C46.0646474,15.1392456 46.1719523,15.7813684 46.2356831,16.436614 L46.6992879,16.3906842 C46.634075,15.7136667 46.5220273,15.0512632 46.3684804,14.4055614 M39.0758944,14.1255088 L38.6303714,14.2627018 C38.8159319,14.873807 38.9558433,15.5087719 39.0429915,16.1601404 L39.5042249,16.0969123 C39.4141124,15.4210877 39.268569,14.7613684 39.0758944,14.1255088 M53.7292436,14.0467719 L53.2736422,14.1475789 C53.4117751,14.7786667 53.515523,15.4228772 53.5828109,16.0778246 L54.0464157,16.0292105 C53.9773492,15.3569649 53.8700443,14.6963509 53.7292436,14.0467719 M28.8718467,13.1520351 L28.415356,13.2480702 C28.5428177,13.8547018 28.6418228,14.484 28.7482385,15.1887544 L29.2082862,15.1180702 C29.1009813,14.4118246 29.0007905,13.7741754 28.8718467,13.1520351 M32.1342726,11.7505789 L31.7542589,12.0195965 C32.1188586,12.5427193 32.4363271,13.1064035 32.6980681,13.7028947 L33.1237308,13.512614 C32.8489472,12.8886842 32.5181397,12.2993509 32.1342726,11.7505789 M45.371908,11.56 L44.9515809,11.7604211 C45.2263646,12.3440877 45.4629097,12.9498246 45.6573629,13.5746491 L46.1019966,13.4338772 C45.9010221,12.7887719 45.6564736,12.1630526 45.371908,11.56 M37.8484089,11.3643509 L37.450017,11.6077193 C37.781121,12.1564912 38.0683543,12.7386667 38.3102351,13.3458947 L38.7421227,13.1720175 C38.4922385,12.5409298 38.1919625,11.9360877 37.8484089,11.3643509 M52.842644,11.1731754 L52.4116457,11.3497368 C52.6535264,11.949807 52.8633935,12.5674737 53.0388756,13.1997544 L53.4873629,13.0732982 C53.307138,12.4237193 53.0916388,11.7899474 52.842644,11.1731754 M27.9769472,10.2766491 L27.5498024,10.4594737 C27.8272538,11.1174035 28.0300068,11.713 28.1897785,12.2993509 L28.639155,12.1749825 C28.4734549,11.5692456 28.2635877,10.9527719 27.9769472,10.2766491 M30.0501261,9.55847368 L29.7682283,9.93068421 C30.2748143,10.321386 30.7422726,10.7660702 31.1631925,11.256386 L31.5159353,10.9509825 C31.0742658,10.435614 30.5830937,9.96826316 30.0501261,9.55847368 M35.9788722,8.99657895 L35.6542896,9.33150877 C36.1125588,9.78066667 36.5352572,10.2721754 36.9155673,10.7988772 L37.2920239,10.5235965 C36.8954106,9.9757193 36.4561124,9.46333333 35.9788722,8.99657895 M43.8168756,8.98285965 L43.4460511,9.26559649 C43.8349574,9.78245614 44.1897751,10.3267544 44.5081329,10.8961053 L44.9136388,10.6652632 C44.5863884,10.0780175 44.2188245,9.51642105 43.8168756,8.98285965 M51.4876968,8.49254386 L51.0922692,8.73859649 C51.4322658,9.29124561 51.7423237,9.86417544 52.0206644,10.455 L52.4415843,10.2554737 C52.1552402,9.64794737 51.8368825,9.05980702 51.4876968,8.49254386 M27.3915128,8.12301754 L27.241523,8.56650877 C27.8506712,8.7752807 28.4319557,9.05145614 28.9755945,9.38459649 L29.2183646,8.98464912 C28.6444906,8.63361404 28.0335639,8.34342105 27.3915128,8.12301754 M33.5645111,7.18980702 L33.3401193,7.60049123 C33.9021363,7.9115614 34.4348075,8.2757193 34.9348722,8.68550877 L35.2286269,8.3234386 C34.7075162,7.89515789 34.1511312,7.51549123 33.5645111,7.18980702 M41.7718569,6.77792982 L41.4656525,7.13105263 C41.952971,7.5584386 42.4103509,8.01952632 42.8348279,8.51014035 L43.1857922,8.20264912 C42.7476797,7.69563158 42.2748859,7.21992982 41.7718569,6.77792982 M30.7493867,6.11284211 L30.6486031,6.57035088 C31.2787973,6.71231579 31.889724,6.91422807 32.4763441,7.17161404 L32.6619046,6.7424386 C32.0489029,6.47342105 31.4095196,6.26107018 30.7493867,6.11284211 M49.706494,6.07645614 L49.3564191,6.3854386 C49.7847496,6.87515789 50.1855128,7.3884386 50.5584123,7.92259649 L50.9393152,7.65447368 C50.557523,7.10480702 50.1454957,6.57780702 49.706494,6.07645614 M28.0824736,5.84024561 C27.964201,5.84024561 27.8506712,5.84859649 27.7332879,5.86410526 L27.7934617,6.32877193 C27.8924668,6.31624561 27.9843578,6.30878947 28.0833629,6.30878947 C28.1817751,6.30878947 28.2861158,6.31624561 28.4088348,6.32877193 L28.4227666,6.3305614 L28.4808654,6.3305614 C28.8937819,6.3305614 29.3001772,6.35621053 29.7000511,6.4057193 L29.7575571,5.94105263 C29.3384157,5.88796491 28.9118637,5.86231579 28.4808654,5.86231579 L28.446184,5.86231579 C28.3163509,5.84770175 28.1989676,5.84024561 28.0845486,5.84024561 C28.0833629,5.84024561 28.0833629,5.84024561 28.0833629,5.84024561 L28.0824736,5.84024561 M39.3234072,5.03707018 L39.0939761,5.44507018 C39.6595503,5.76538596 40.2008177,6.12298246 40.7145179,6.51547368 L40.9964157,6.14236842 C40.4652266,5.73705263 39.907063,5.36812281 39.3234072,5.03707018 M47.5488348,3.99201754 L47.2559693,4.35647368 C47.7595911,4.76805263 48.2397956,5.20617544 48.6945077,5.67024561 L49.0262044,5.34247368 C48.5599319,4.86498246 48.066092,4.41492982 47.5488348,3.99201754 M36.5699387,3.83752632 L36.4297308,4.28429825 C37.0501431,4.48084211 37.65277,4.7194386 38.2337581,4.99680702 L38.4338433,4.57419298 C37.8338842,4.28668421 37.2111005,4.04063158 36.5699387,3.83752632 M29.6446201,3.40298246 C28.9883407,3.51661404 28.3406576,3.66663158 27.7006814,3.84766667 L27.8263646,4.2977193 C28.4527053,4.12235088 29.084678,3.97561404 29.7237649,3.86585965 L29.6446201,3.40298246 M33.6326882,3.23477193 L33.5873356,3.70033333 C34.2367973,3.76445614 34.8749949,3.87331579 35.4968893,4.02333333 L35.6050835,3.56761404 C34.9621431,3.41222807 34.3040852,3.30068421 33.6326882,3.23477193 M32.2326848,3.16349123 L32.2306099,3.16349123 C31.6908245,3.17064912 31.1596354,3.20375439 30.6340784,3.26310526 L30.6859523,3.72866667 C31.1960954,3.672 31.7106848,3.63919298 32.2344634,3.63173684 C32.3634072,3.63263158 32.4917581,3.63442105 32.6198126,3.63829825 L32.633448,3.17064912 C32.5009472,3.16617544 32.3672606,3.16438596 32.2335741,3.16349123 L32.2326848,3.16349123 M45.0745963,2.29977193 L44.8463509,2.70777193 C45.411925,3.02898246 45.959121,3.38121053 46.4828995,3.76177193 L46.7559046,3.38210526 C46.2173049,2.99140351 45.6555843,2.62903509 45.0745963,2.29977193 M29.6730767,1.42412281 C29.0547394,1.68210526 28.4535945,1.97229825 27.8752743,2.29321053 L28.0990733,2.70419298 C28.6637581,2.39103509 29.2483032,2.10770175 29.8521158,1.85687719 L29.6730767,1.42412281 M42.3513629,1.04982456 L42.1948518,1.49092982 C42.8078535,1.7104386 43.4060341,1.96484211 43.9852436,2.25205263 L44.1897751,1.83122807 C43.5951516,1.53685965 42.9821499,1.27589474 42.3513629,1.04982456 M32.5199182,0.502842105 C31.8668995,0.656438596 31.2278126,0.844035088 30.605029,1.06473684 L30.7594651,1.50733333 C31.3668348,1.29140351 31.9890256,1.10857895 32.6254446,0.958561404 L32.5199182,0.502842105 M39.4567973,0.28154386 L39.3767632,0.742631579 C40.0205928,0.855964912 40.6516763,1.00419298 41.2691244,1.18731579 L41.4001431,0.737859649 C40.7663918,0.550263158 40.1178194,0.396666667 39.4567973,0.28154386 M35.477029,0.0572631579 C34.8068177,0.102298246 34.1457956,0.184315789 33.4963339,0.300631579 L33.5784429,0.761719298 C34.2113049,0.649280702 34.8548382,0.568754386 35.5078569,0.524912281 L35.477029,0.0572631579" id="Fill-24" fill="#E20026" mask="url(#mask-4)"></path>
                    <path d="M8.72934583,17.8583509 C9.62217036,28.7097193 20.7753629,25.8212105 20.7753629,25.8212105 L27.9627189,24.0940702 L27.9333731,32.9072281 C27.9333731,32.9072281 24.4418126,33.8422281 22.2885997,34.3125614 C20.4172845,34.7184737 16.2098637,35.3883333 14.0830324,34.9364912 C0.188228279,31.9850526 -6.52741221e-06,17.8583509 -6.52741221e-06,17.8583509 L-6.52741221e-06,17.7995965 C-6.52741221e-06,17.7995965 -0.0708449744,3.05910526 14.5487121,0.409491228 C16.4926508,0.0563684211 20.4172845,0.646596491 22.2885997,1.05370175 C24.4418126,1.52194737 27.9333731,2.45873684 27.9333731,2.45873684 L27.9627189,11.271 L20.7753629,9.54385965 C20.7753629,9.54385965 9.54391482,6.32340351 8.72934583,18.0340175 L8.72934583,17.8583509" id="Fill-26" fill="#E20026" mask="url(#mask-4)"></path>
                </g>
            </g>
        </g>
    </g>
</svg>